<?xml version="1.0" encoding="UTF-8"?>
<svg id="Layer_1" data-name="Layer 1" xmlns="http://www.w3.org/2000/svg" version="1.1" viewBox="0 0 96 96">
  <defs>
    <style>
      .cls-1 {
        fill: #003d7a;
        stroke-width: 0px;
      }
    </style>
  </defs>
  <path class="cls-1" d="M69.9,5.8c-8.8,0-17.1,4.6-21.9,11.9-4.8-7.3-13-11.9-21.9-11.9C11.7,5.8,0,17.5,0,32c0,40.5,46.9,57.9,47.3,58.1.2,0,.4.1.7.1s.4,0,.7-.1c.5-.2,47.3-17.6,47.3-58.1s-11.7-26.1-26.1-26.1ZM48,86.2c-5.5-2.2-44.2-19-44.2-54.2S13.8,9.7,26.1,9.7s16.4,5,20.1,12.8c.3.7,1,1.1,1.7,1.1s1.4-.4,1.7-1.1c3.7-7.7,11.6-12.8,20.1-12.8,12.3,0,22.3,10,22.3,22.3,0,35.3-38.6,52-44.2,54.2Z"/>
  <path class="cls-1" d="M65.5,45.3h-11v-11c0-1.1-.9-1.9-1.9-1.9h-9.2c-1.1,0-1.9.9-1.9,1.9v11h-11c-1.1,0-1.9.9-1.9,1.9v9.2c0,1.1.9,1.9,1.9,1.9h11v11c0,1.1.9,1.9,1.9,1.9h9.2c1.1,0,1.9-.9,1.9-1.9v-11h11c1.1,0,1.9-.9,1.9-1.9v-9.2c0-1.1-.9-1.9-1.9-1.9ZM63.6,54.5h-11c-1.1,0-1.9.9-1.9,1.9v11h-5.4v-11c0-1.1-.9-1.9-1.9-1.9h-11v-5.4h11c1.1,0,1.9-.9,1.9-1.9v-11h5.4v11c0,1.1.9,1.9,1.9,1.9h11v5.4Z"/>
</svg>