<?xml version="1.0" encoding="UTF-8"?>
<svg id="Capa_1" data-name="Capa 1" xmlns="http://www.w3.org/2000/svg" version="1.1" viewBox="0 0 96 96">
  <defs>
    <style>
      .cls-1 {
        fill: none;
        stroke: #003d7a;
        stroke-linecap: round;
        stroke-linejoin: round;
        stroke-width: 2px;
      }
    </style>
  </defs>
  <path class="cls-1" d="M82.5,63.1h-3.5v-3.5c0-.6-.4-1-1-1h-2.8c-.6,0-1,.4-1,1v3.5h-3.5c-.6,0-1,.4-1,1v2.8c0,.6.4,1,1,1h3.5v3.5c0,.6.4,1,1,1h2.8c.6,0,1-.4,1-1v-3.5h3.5c.6,0,1-.4,1-1v-2.8c0-.6-.4-1-1-1Z"/>
  <path class="cls-1" d="M60.6,64.8v-18c5.3,4,10.6,4,15.9,0h0s0,0,0,0c0,0,0,0,0,0h0c5.3,4,10.6,4,15.9,0v20.9c0,6.3-3.9,12-9.8,14.3l-6.1,2.4h0s0,0,0,0h0s0,0,0,0l-6.1-2.4c-5.9-2.3-9.8-8-9.8-14.3v-2.9Z"/>
  <g>
    <line class="cls-1" x1="81.1" y1="22.7" x2="81.1" y2="28.2"/>
    <line class="cls-1" x1="78.4" y1="25.5" x2="83.9" y2="25.5"/>
  </g>
  <line class="cls-1" x1="76.5" y1="33.8" x2="76.5" y2="33.8"/>
  <path class="cls-1" d="M62.8,48.2c0-.6,0-1.3,0-1.9,0-14.1-11.4-19.7-25.4-19.9-14.4-.2-26.2,5.4-26.2,19.8s.6,6.5,1.8,9.5c-.3,3.1-.1,6,.3,8.7-9.7,2.1-10.9-10.4-9-13,2.4-3.2,7.3,0,7.4,0"/>
  <path class="cls-1" d="M60.6,65.2c-2.3,12-11,19-15.4,21.8-1.5,1-3.3,1.5-5.2,1.5h-6c-1.8,0-3.6-.5-5.2-1.5-3.7-2.4-14.6-11-15.6-22.1"/>
  <line class="cls-1" x1="21.8" y1="95" x2="23.3" y2="82.7"/>
  <line class="cls-1" x1="50.7" y1="82.7" x2="52.2" y2="95"/>
  <g>
    <path class="cls-1" d="M50.2,42.1s2.9-.7,5.1,1.5"/>
    <path class="cls-1" d="M23.8,42.1s-2.9-.7-5.1,1.5"/>
  </g>
  <path class="cls-1" d="M6.3,50.1s-3.4-18,4-26.5c10-11.5,27.1-10.8,27.1-10.8,0,0,17.1-.7,27.1,10.8,6.8,7.7,3.9,23.5,3.3,26.1"/>
  <path class="cls-1" d="M50,14.7c.4-1,.6-2,.6-3,0-5.9-6-10.6-13.3-10.6s-13.3,4.8-13.3,10.6.2,2.1.6,3.1"/>
  <line class="cls-1" x1="37.2" y1="56.9" x2="37.2" y2="62.5"/>
  <path class="cls-1" d="M32.4,72.6s4.3,1.6,9.6,0"/>
  <line class="cls-1" x1="24.8" y1="53.8" x2="24.8" y2="56.3"/>
  <line class="cls-1" x1="50" y1="53.8" x2="50" y2="56.3"/>
</svg>