<?xml version="1.0" encoding="UTF-8"?>
<svg id="Layer_1" data-name="Layer 1" xmlns="http://www.w3.org/2000/svg" version="1.1" viewBox="0 0 96 96">
  <defs>
    <style>
      .cls-1 {
        fill: #003d7a;
        stroke-width: 0px;
      }
    </style>
  </defs>
  <path class="cls-1" d="M71.6,0c-.6,0-1.1.3-1.4.8-6.9,11.4-18.9,24.2-39.1,28.1-12.8,2.5-22.8,8.1-30.5,14.7-.7.6-.7,1.6-.2,2.3.6.7,1.6.7,2.3.2,7.4-6.4,16.8-11.7,29.1-14,21.3-4.1,34-17.7,41.3-29.6.5-.8.2-1.7-.5-2.2-.2-.1-.5-.2-.8-.2h0ZM77.5.8c-7.3,13.3-20.8,29.7-45.2,34.3-14,2.7-24.4,9.5-31.9,17.3-.6.6-.6,1.6,0,2.3.6.6,1.6.6,2.3,0,7.1-7.4,16.8-13.8,30.2-16.4,25.5-4.9,39.8-22.1,47.4-35.9.4-.8.1-1.7-.6-2.2-1-.4-1.8,0-2.2.6h0ZM86.4,8c-2.6,0-4.8,2.2-4.8,4.8s2.2,4.8,4.8,4.8,4.8-2.2,4.8-4.8-2.2-4.8-4.8-4.8ZM86.4,11.2c.9,0,1.6.7,1.6,1.6s-.7,1.6-1.6,1.6-1.6-.7-1.6-1.6.7-1.6,1.6-1.6ZM76.8,17.6c-2.6,0-4.8,2.2-4.8,4.8s2.2,4.8,4.8,4.8,4.8-2.2,4.8-4.8-2.2-4.8-4.8-4.8ZM76.8,20.8c.9,0,1.6.7,1.6,1.6s-.7,1.6-1.6,1.6-1.6-.7-1.6-1.6.7-1.6,1.6-1.6ZM91.2,20.8c-2.6,0-4.8,2.2-4.8,4.8s2.2,4.8,4.8,4.8,4.8-2.2,4.8-4.8-2.2-4.8-4.8-4.8ZM91.2,24c.9,0,1.6.7,1.6,1.6s-.7,1.6-1.6,1.6-1.6-.7-1.6-1.6.7-1.6,1.6-1.6ZM70.4,30.4c-12.4,0-22.4,10-22.4,22.4s.7,6.1,1.8,8.9c-17.4,7.3-28,20.8-34.1,32-.4.8-.1,1.7.6,2.2.8.4,1.7.1,2.2-.6,7.3-13.3,20.8-29.7,45.2-34.3,14-2.7,24.4-9.5,31.9-17.3.6-.6.6-1.6,0-2.3-.6-.6-1.6-.6-2.3,0-.8.8-1.6,1.6-2.4,2.3-3.5-7.8-11.3-13.3-20.4-13.3h0ZM70.4,33.6c8.2,0,15.1,5.1,17.9,12.3-6.5,5.4-14.7,9.8-25.2,11.8-3.7.7-7.1,1.7-10.3,2.8-1-2.4-1.6-5-1.6-7.7,0-10.6,8.6-19.2,19.2-19.2h0ZM40,41.6c-2.6,0-4.8,2.2-4.8,4.8s2.2,4.8,4.8,4.8,4.8-2.2,4.8-4.8-2.2-4.8-4.8-4.8ZM40,44.8c.9,0,1.6.7,1.6,1.6s-.7,1.6-1.6,1.6-1.6-.7-1.6-1.6.7-1.6,1.6-1.6ZM94.1,49.6c-.3,0-.5.2-.7.4-7.4,6.4-16.8,11.7-29.1,14-21.3,4.1-34,17.7-41.3,29.6-.5.8-.2,1.7.5,2.2.8.5,1.7.2,2.2-.5,6.9-11.4,18.9-24.2,39.1-28.1,12.8-2.5,22.8-8.1,30.5-14.7.7-.6.7-1.6.2-2.3-.4-.4-1-.6-1.5-.5h0ZM8,59.2c-2.6,0-4.8,2.2-4.8,4.8s2.2,4.8,4.8,4.8,4.8-2.2,4.8-4.8-2.2-4.8-4.8-4.8ZM28.8,59.2c-2.6,0-4.8,2.2-4.8,4.8s2.2,4.8,4.8,4.8,4.8-2.2,4.8-4.8-2.2-4.8-4.8-4.8ZM8,62.4c.9,0,1.6.7,1.6,1.6s-.7,1.6-1.6,1.6-1.6-.7-1.6-1.6.7-1.6,1.6-1.6ZM28.8,62.4c.9,0,1.6.7,1.6,1.6s-.7,1.6-1.6,1.6-1.6-.7-1.6-1.6.7-1.6,1.6-1.6Z"/>
</svg>