<?xml version="1.0" encoding="UTF-8"?>
<svg id="Line" xmlns="http://www.w3.org/2000/svg" version="1.1" viewBox="0 0 96 96">
  <defs>
    <style>
      .cls-1 {
        fill: #003d7a;
        stroke-width: 0px;
      }
    </style>
  </defs>
  <path class="cls-1" d="M57.8,57.8c.2,0,.4,0,.6-.1l8.1-4.5c.3-.2.5-.4.6-.8,0-.3,0-.7-.2-.9l-11.6-18,7.8-11.4s4.5-7.4-.5-15.2C59.6,1.6,56,0,52.3,0h-8.6c-4.7,0-8,2.7-10.3,6.9-4.8,8.4-.9,14.2-.5,15.2l7.8,11.4-11.6,18c-.2.3-.2.6-.2.9,0,.3.3.6.6.8l8.1,4.5c.2.1.4.1.6.1.4,0,.8-.2,1-.5l8.8-13,8.8,13c.2.3.6.5,1,.5h0ZM35.4,8.2l1.4-2c1.5-2.3,4.1-3.7,6.9-3.7h8.6c2.8,0,5.4,1.4,6.9,3.7,0,0,1.4,2,1.4,2,1.2,1.8,1.8,3.9,2,6l-.6-.9c-1.6-2.5-4.4-4-7.4-4h-13c-3,0-5.8,1.5-7.4,4l-.6.9c.1-2.2.8-4.3,2-6.1ZM54.7,11.7l-6.7,10.4-6.7-10.4c0,0,13.4,0,13.5,0ZM34.9,20.7c-.5-.8-.8-1.7-1.1-2.6l2.2-3.4c.7-1,1.6-1.8,2.7-2.3l7.8,12-4.5,6.9-7.2-10.6ZM37.8,55l-6-3.3L57.2,12.3c1.1.5,2,1.3,2.7,2.4l2.2,3.4c-.2.9-.6,1.8-1.1,2.7l-23.3,34.3ZM53.9,35.6l10.4,16.1-6,3.3-8.7-12.9,4.4-6.5Z"/>
  <path class="cls-1" d="M38.9,69l-11.3-13.4c-2.2-2.6-6.2-3-8.8-.8-1.3,1.1-2.1,2.6-2.2,4.2-.1,1.5.3,3.1,1.2,4.3-1.7-1.4-3.1-2.7-3.7-3.2l-1.2-22.9c0-3-2.6-5.5-5.7-5.4-3,0-5.5,2.6-5.4,5.6l-.2,24.5s0,0,0,0c0,1.2.5,2.5,1.3,3.4,0,0,0,0,0,0l16.3,18.7c.7,1.8.5,9.7.2,11.4l2.4.5c0,0,0-.1,0-.2.3-2,.7-10.4-.5-12.8,0,0-16.6-19.1-16.6-19.1-.4-.5-.7-1.2-.7-1.9l.2-24.5s0,0,0,0c0-1.7,1.3-3.2,3.1-3.2,1.7,0,3.2,1.3,3.2,3.1h0s1.2,23.5,1.2,23.5c0,.3.2.6.4.8.4.4,10.1,9,13.6,10.8.5.3,1.1.1,1.5-.3s.3-1.1,0-1.5l-7.3-8.4c-.7-.8-1-1.8-.9-2.8s.6-2,1.4-2.6c1.6-1.4,4.1-1.2,5.4.5l11.3,13.4c.2.3,2.5,3.1,3,4.8.8,2.8.3,6-1.6,9.5,0,.2-.1.4-.1.6v10.4h2.4v-10.1c2.1-4,2.7-7.7,1.7-11.1-.5-1.6-3.1-5.3-3.4-5.7h0Z"/>
  <path class="cls-1" d="M94.1,37.4c0-1.5-.5-2.9-1.5-3.9-1-1.1-2.4-1.7-3.9-1.7-3,0-5.6,2.4-5.7,5.4l-1.2,22.9c-.6.6-2,1.8-3.7,3.2,2-2.6,1.6-6.4-1-8.6-2.6-2.2-6.6-1.9-8.8.8l-11.3,13.4c-.3.4-2.9,4-3.4,5.7-1,3.3-.5,7.1,1.7,11.1v10.1h2.4v-10.4c0-.2,0-.4-.1-.6-1.9-3.5-2.5-6.7-1.6-9.5.6-2.1,2.7-4.6,3-4.8l11.3-13.4c1.4-1.6,3.8-1.8,5.4-.5,1.6,1.4,1.8,3.8.5,5.4l-7.3,8.5c-.4.4-.4,1.1,0,1.5s1,.6,1.5.3c3.6-1.8,13.2-10.4,13.6-10.8.2-.2.4-.5.4-.8l1.2-23.4s0,0,0,0c0-1.7,1.5-3.1,3.2-3.1.8,0,1.6.4,2.2,1s.9,1.4.9,2.2c0,0,0,0,0,0l.2,24.5c0,.7-.3,1.4-.7,1.9,0,0-16.5,19-16.6,19.1-1.2,2.4-.8,10.9-.5,12.8,0,0,0,.2,0,.2l2.4-.5c-.4-1.7-.5-9.6.2-11.4l16.3-18.7s0,0,0,0c.8-1,1.2-2.2,1.3-3.4,0,0,0,0,0,0l-.2-24.5Z"/>
</svg>